<?xml version="1.0" encoding="UTF-8"?>
<svg version="1.1" xmlns="http://www.w3.org/2000/svg" width="128" height="128">
<path d="M0 0 C14.51070554 10.28787993 23.61300916 25.01584534 26.73535156 42.49902344 C28.1019515 62.82616216 25.37187479 80.19268474 11.86425781 96.18652344 C0.35528385 108.68801442 -13.7250264 116.82932615 -30.84667969 117.98339844 C-51.06094881 118.74122349 -67.53033839 113.6415303 -82.57714844 99.81152344 C-97.35618467 83.82473801 -100.97792318 66.25117387 -100.39648438 45.09326172 C-99.57716179 28.97081396 -90.42325801 14.98931595 -78.88964844 4.24902344 C-56.42112543 -14.70998494 -24.3693513 -16.41256255 0 0 Z " fill="#030303" transform="translate(100.2646484375,10.5009765625)"/>
<path d="M0 0 C6.69195768 2.03967203 8.79642828 7.14392968 12 13 C16.12454987 21.03843724 17.9965366 28.98950348 19.421875 37.82421875 C19.66179354 40.85147086 19.66179354 40.85147086 21 42 C21.31533526 46.5198054 20.41654988 49.75035036 19 54 C18.23418051 59.74364619 20.50018992 63.97806011 23 69 C28.90239999 60.01882653 32.16758898 51.28543724 35 41 C37.1220143 44.18302145 37.26729866 45.1573368 36.59375 48.79296875 C34.2522419 57.49660083 30.23646117 64.31445893 24.78515625 71.40625 C22.67210333 74.47641879 21.6990116 77.31378362 20.69921875 80.8671875 C18.73925952 86.84561063 15.17188891 91.45356189 10 95 C14.9571488 94.46753772 18.38328731 92.91204737 22.6875 90.4375 C28.68410463 87 28.68410463 87 32 87 C30.51417152 91.09487253 28.34069204 92.20649547 24.5 94.0625 C23.5203125 94.54847656 22.540625 95.03445312 21.53125 95.53515625 C12.77598382 99.16704211 5.36115287 100.42284349 -4.125 100.1875 C-5.176875 100.17396484 -6.22875 100.16042969 -7.3125 100.14648438 C-9.87555954 100.11153356 -12.43748913 100.06247682 -15 100 C-15 99.34 -15 98.68 -15 98 C-21.27 98.33 -27.54 98.66 -34 99 C-34.33 97.68 -34.66 96.36 -35 95 C-35.66 95 -36.32 95 -37 95 C-37.33 95.66 -37.66 96.32 -38 97 C-38.99 96.67 -39.98 96.34 -41 96 C-40.34 96 -39.68 96 -39 96 C-39.33 95.01 -39.66 94.02 -40 93 C-40.66 93.66 -41.32 94.32 -42 95 C-42.99 94.01 -42.99 94.01 -44 93 C-44.495 94.485 -44.495 94.485 -45 96 C-44.34 96 -43.68 96 -43 96 C-43 96.66 -43 97.32 -43 98 C-45.31 98 -47.62 98 -50 98 C-51.35070843 95.29858314 -50.91604756 93.32022504 -50.75 90.3125 C-50.66058303 84.10547195 -51.99116598 81.61015912 -56 77 C-56 76.34 -56 75.68 -56 75 C-57.485 74.505 -57.485 74.505 -59 74 C-58.80547246 82.82447642 -56.3990091 89.91587025 -53 98 C-52.67 98.99 -52.34 99.98 -52 101 C-53.83203125 100.89453125 -53.83203125 100.89453125 -56 100 C-57.44921875 97.19921875 -57.44921875 97.19921875 -58.6875 93.6875 C-59.10386719 92.53636719 -59.52023438 91.38523437 -59.94921875 90.19921875 C-61.49533296 85.49190447 -62.11763737 81.86186903 -62.0625 76.875 C-62.05347656 75.82054688 -62.04445313 74.76609375 -62.03515625 73.6796875 C-62.02355469 72.79539062 -62.01195313 71.91109375 -62 71 C-62 70.34 -62 69.68 -62 69 C-62.66 68.484375 -63.32 67.96875 -64 67.4375 C-66.9525019 63.83913831 -66.34491116 60.48384508 -66 56 C-65.34 56.33 -64.68 56.66 -64 57 C-64 57.99 -64 58.98 -64 60 C-63.34 60 -62.68 60 -62 60 C-60.4375 61.4375 -60.4375 61.4375 -59 63 C-58.505 63.495 -58.505 63.495 -58 64 C-58 62.02 -58 60.04 -58 58 C-57.01 58.66 -56.02 59.32 -55 60 C-55 60.66 -55 61.32 -55 62 C-54.34 62 -53.68 62 -53 62 C-52.67 61.01 -52.34 60.02 -52 59 C-52.5775 58.95875 -53.155 58.9175 -53.75 58.875 C-57.10887581 57.56877052 -58.0729555 54.97815968 -60 52 C-62.6091387 49.67722584 -62.6091387 49.67722584 -65 48 C-64.484375 48.763125 -63.96875 49.52625 -63.4375 50.3125 C-62.963125 51.199375 -62.48875 52.08625 -62 53 C-62.33 53.99 -62.66 54.98 -63 56 C-65 53 -65 53 -66 51 C-72.89972228 60.10763341 -75.78308946 69.91544728 -78 81 C-80 79 -80 79 -80.4375 75.625 C-80.14756631 64.95544037 -72.73611622 53.01051659 -66 45 C-65.34 45 -64.68 45 -64 45 C-64 44.34 -64 43.68 -64 43 C-62.38542921 41.56418526 -60.70780925 40.19855217 -59 38.875 C-58.071875 38.15054688 -57.14375 37.42609375 -56.1875 36.6796875 C-55.1046875 35.84824219 -55.1046875 35.84824219 -54 35 C-53.34 35.33 -52.68 35.66 -52 36 C-54.97 38.64 -57.94 41.28 -61 44 C-60.01 45.32 -59.02 46.64 -58 48 C-57.6596875 47.29875 -57.319375 46.5975 -56.96875 45.875 C-51.06285943 34.31453336 -44.14190388 27.8400141 -32 23 C-22.09973984 20.54723284 -12.57013151 22.07144639 -3.8125 27.3125 C0.06059532 29.91011815 3.52956925 32.89528728 7 36 C8.31013977 37.12774777 9.62258009 38.25282939 10.9375 39.375 C11.95833333 40.25 12.97916667 41.125 14 42 C14.99 41.01 14.99 41.01 16 40 C15.6565766 27.77816728 10.28698666 16.2723861 3.55078125 6.33984375 C2.18234122 4.27511937 1.04984123 2.23931652 0 0 Z " fill="#787878" transform="translate(86,5)"/>
<path d="M0 0 C3.0482655 2.45554721 5.46555539 5.36730907 7.828125 8.47265625 C6.65056641 8.40304688 6.65056641 8.40304688 5.44921875 8.33203125 C-1.38310297 8.09730118 -5.78045518 8.09212764 -11.171875 12.47265625 C-13.7728254 15.67920107 -15.09153636 18.62106666 -15.484375 22.78515625 C-15.33049446 25.43951189 -15.33049446 25.43951189 -14.171875 27.47265625 C-12.191875 26.81265625 -10.211875 26.15265625 -8.171875 25.47265625 C-8.171875 23.49265625 -8.171875 21.51265625 -8.171875 19.47265625 C-9.821875 19.47265625 -11.471875 19.47265625 -13.171875 19.47265625 C-11.49445836 15.50785328 -9.05060638 12.63223948 -6.171875 9.47265625 C-0.91648896 7.7208609 3.31701281 7.82503674 8.328125 9.97265625 C9.565625 10.71515625 9.565625 10.71515625 10.828125 11.47265625 C10.828125 12.13265625 10.828125 12.79265625 10.828125 13.47265625 C11.488125 13.47265625 12.148125 13.47265625 12.828125 13.47265625 C12.828125 14.13265625 12.828125 14.79265625 12.828125 15.47265625 C15.138125 15.47265625 17.448125 15.47265625 19.828125 15.47265625 C19.333125 17.94765625 19.333125 17.94765625 18.828125 20.47265625 C17.178125 20.80265625 15.528125 21.13265625 13.828125 21.47265625 C13.910625 22.23578125 13.993125 22.99890625 14.078125 23.78515625 C13.828125 26.47265625 13.828125 26.47265625 11.828125 28.28515625 C11.168125 28.67703125 10.508125 29.06890625 9.828125 29.47265625 C10.488125 30.13265625 11.148125 30.79265625 11.828125 31.47265625 C10.838125 31.47265625 9.848125 31.47265625 8.828125 31.47265625 C9.323125 34.44265625 9.323125 34.44265625 9.828125 37.47265625 C7.518125 37.47265625 5.208125 37.47265625 2.828125 37.47265625 C2.828125 36.15265625 2.828125 34.83265625 2.828125 33.47265625 C-0.141875 33.47265625 -3.111875 33.47265625 -6.171875 33.47265625 C-6.171875 34.46265625 -6.171875 35.45265625 -6.171875 36.47265625 C-2.706875 35.97765625 -2.706875 35.97765625 0.828125 35.47265625 C1.818125 37.45265625 1.818125 37.45265625 2.828125 39.47265625 C3.818125 39.47265625 4.808125 39.47265625 5.828125 39.47265625 C4.178125 40.79265625 2.528125 42.11265625 0.828125 43.47265625 C1.158125 44.46265625 1.488125 45.45265625 1.828125 46.47265625 C0.343125 46.96765625 0.343125 46.96765625 -1.171875 47.47265625 C-1.171875 45.82265625 -1.171875 44.17265625 -1.171875 42.47265625 C-2.821875 42.14265625 -4.471875 41.81265625 -6.171875 41.47265625 C-6.171875 40.48265625 -6.171875 39.49265625 -6.171875 38.47265625 C-7.12166397 36.32237321 -7.12166397 36.32237321 -8.171875 34.47265625 C-8.831875 34.47265625 -9.491875 34.47265625 -10.171875 34.47265625 C-11.796875 32.47265625 -11.796875 32.47265625 -13.171875 30.47265625 C-15.151875 31.13265625 -17.131875 31.79265625 -19.171875 32.47265625 C-18.511875 32.90578125 -17.851875 33.33890625 -17.171875 33.78515625 C-16.181875 34.62046875 -16.181875 34.62046875 -15.171875 35.47265625 C-15.171875 36.46265625 -15.171875 37.45265625 -15.171875 38.47265625 C-14.181875 38.47265625 -13.191875 38.47265625 -12.171875 38.47265625 C-11.33338696 39.92803193 -10.50123566 41.38705998 -9.671875 42.84765625 C-8.97578125 44.06582031 -8.97578125 44.06582031 -8.265625 45.30859375 C-7.171875 47.47265625 -7.171875 47.47265625 -7.171875 49.47265625 C-9.481875 50.46265625 -11.791875 51.45265625 -14.171875 52.47265625 C-14.501875 52.14265625 -14.831875 51.81265625 -15.171875 51.47265625 C-17.62979529 51.13922074 -17.62979529 51.13922074 -20.171875 51.47265625 C-20.831875 52.46265625 -21.491875 53.45265625 -22.171875 54.47265625 C-23.161875 54.47265625 -24.151875 54.47265625 -25.171875 54.47265625 C-24.8625 53.81265625 -24.553125 53.15265625 -24.234375 52.47265625 C-22.92227245 48.7678961 -22.56923365 45.38001634 -22.171875 41.47265625 C-23.079375 41.03953125 -23.986875 40.60640625 -24.921875 40.16015625 C-29.04074466 37.48531384 -29.86979358 33.55774305 -31.21484375 29.03125 C-32.20033578 26.39656723 -33.20345174 25.38563097 -35.171875 23.47265625 C-35.171875 22.48265625 -35.171875 21.49265625 -35.171875 20.47265625 C-35.501875 21.13265625 -35.831875 21.79265625 -36.171875 22.47265625 C-39.171875 23.16015625 -39.171875 23.16015625 -42.171875 23.47265625 C-42.501875 23.14265625 -42.831875 22.81265625 -43.171875 22.47265625 C-43.171875 23.46265625 -43.171875 24.45265625 -43.171875 25.47265625 C-44.161875 25.80265625 -45.151875 26.13265625 -46.171875 26.47265625 C-45.841875 27.46265625 -45.511875 28.45265625 -45.171875 29.47265625 C-45.40625 31.84765625 -45.40625 31.84765625 -45.921875 34.47265625 C-46.08171875 35.33890625 -46.2415625 36.20515625 -46.40625 37.09765625 C-47.23212153 39.65954344 -48.12995875 40.7673196 -50.171875 42.47265625 C-50.501875 41.81265625 -50.831875 41.15265625 -51.171875 40.47265625 C-52.161875 41.79265625 -53.151875 43.11265625 -54.171875 44.47265625 C-52.98763174 45.88843102 -52.98763174 45.88843102 -49.609375 45.53515625 C-47.9078125 45.50421875 -47.9078125 45.50421875 -46.171875 45.47265625 C-45.181875 48.77265625 -44.191875 52.07265625 -43.171875 55.47265625 C-44.821875 56.46265625 -46.471875 57.45265625 -48.171875 58.47265625 C-48.98754674 57.03695359 -49.79929593 55.59902191 -50.609375 54.16015625 C-51.28806641 52.95939453 -51.28806641 52.95939453 -51.98046875 51.734375 C-53.171875 49.47265625 -53.171875 49.47265625 -54.171875 46.47265625 C-55.656875 45.97765625 -55.656875 45.97765625 -57.171875 45.47265625 C-56.97734746 54.29713267 -54.5708841 61.3885265 -51.171875 69.47265625 C-50.841875 70.46265625 -50.511875 71.45265625 -50.171875 72.47265625 C-52.00390625 72.3671875 -52.00390625 72.3671875 -54.171875 71.47265625 C-55.62109375 68.671875 -55.62109375 68.671875 -56.859375 65.16015625 C-57.27574219 64.00902344 -57.69210938 62.85789062 -58.12109375 61.671875 C-59.66720796 56.96456072 -60.28951237 53.33452528 -60.234375 48.34765625 C-60.22535156 47.29320312 -60.21632813 46.23875 -60.20703125 45.15234375 C-60.19542969 44.26804688 -60.18382813 43.38375 -60.171875 42.47265625 C-60.171875 41.81265625 -60.171875 41.15265625 -60.171875 40.47265625 C-60.831875 39.95703125 -61.491875 39.44140625 -62.171875 38.91015625 C-65.1243769 35.31179456 -64.51678616 31.95650133 -64.171875 27.47265625 C-63.511875 27.80265625 -62.851875 28.13265625 -62.171875 28.47265625 C-62.171875 29.46265625 -62.171875 30.45265625 -62.171875 31.47265625 C-61.511875 31.47265625 -60.851875 31.47265625 -60.171875 31.47265625 C-58.609375 32.91015625 -58.609375 32.91015625 -57.171875 34.47265625 C-56.676875 34.96765625 -56.676875 34.96765625 -56.171875 35.47265625 C-56.171875 33.49265625 -56.171875 31.51265625 -56.171875 29.47265625 C-55.181875 30.13265625 -54.191875 30.79265625 -53.171875 31.47265625 C-53.171875 32.13265625 -53.171875 32.79265625 -53.171875 33.47265625 C-52.511875 33.47265625 -51.851875 33.47265625 -51.171875 33.47265625 C-50.841875 32.48265625 -50.511875 31.49265625 -50.171875 30.47265625 C-50.749375 30.43140625 -51.326875 30.39015625 -51.921875 30.34765625 C-55.28075081 29.04142677 -56.2448305 26.45081593 -58.171875 23.47265625 C-60.7810137 21.14988209 -60.7810137 21.14988209 -63.171875 19.47265625 C-62.65625 20.23578125 -62.140625 20.99890625 -61.609375 21.78515625 C-61.135 22.67203125 -60.660625 23.55890625 -60.171875 24.47265625 C-60.501875 25.46265625 -60.831875 26.45265625 -61.171875 27.47265625 C-63.171875 24.47265625 -63.171875 24.47265625 -64.171875 22.47265625 C-71.07159728 31.58028966 -73.95496446 41.38810353 -76.171875 52.47265625 C-78.171875 50.47265625 -78.171875 50.47265625 -78.609375 47.09765625 C-78.31944131 36.42809662 -70.90799122 24.48317284 -64.171875 16.47265625 C-63.511875 16.47265625 -62.851875 16.47265625 -62.171875 16.47265625 C-62.171875 15.81265625 -62.171875 15.15265625 -62.171875 14.47265625 C-60.55730421 13.03684151 -58.87968425 11.67120842 -57.171875 10.34765625 C-56.24375 9.62320313 -55.315625 8.89875 -54.359375 8.15234375 C-53.6375 7.59804688 -52.915625 7.04375 -52.171875 6.47265625 C-51.511875 6.80265625 -50.851875 7.13265625 -50.171875 7.47265625 C-53.141875 10.11265625 -56.111875 12.75265625 -59.171875 15.47265625 C-58.181875 16.79265625 -57.191875 18.11265625 -56.171875 19.47265625 C-55.8315625 18.77140625 -55.49125 18.07015625 -55.140625 17.34765625 C-49.23473443 5.78718961 -42.31377888 -0.68732965 -30.171875 -5.52734375 C-19.46285535 -8.18047925 -9.16608764 -6.09209483 0 0 Z " fill="#F8F8F8" transform="translate(84.171875,33.52734375)"/>
<path d="M0 0 C1.2375 0.7425 1.2375 0.7425 2.5 1.5 C2.5 2.16 2.5 2.82 2.5 3.5 C3.16 3.5 3.82 3.5 4.5 3.5 C4.5 4.16 4.5 4.82 4.5 5.5 C6.81 5.5 9.12 5.5 11.5 5.5 C11.17 7.15 10.84 8.8 10.5 10.5 C8.85 10.83 7.2 11.16 5.5 11.5 C5.62375 12.6446875 5.62375 12.6446875 5.75 13.8125 C5.5 16.5 5.5 16.5 3.5 18.3125 C2.84 18.704375 2.18 19.09625 1.5 19.5 C2.16 20.16 2.82 20.82 3.5 21.5 C2.51 21.5 1.52 21.5 0.5 21.5 C0.83 23.48 1.16 25.46 1.5 27.5 C-0.81 27.5 -3.12 27.5 -5.5 27.5 C-5.5 26.18 -5.5 24.86 -5.5 23.5 C-8.47 23.5 -11.44 23.5 -14.5 23.5 C-14.5 24.49 -14.5 25.48 -14.5 26.5 C-11.035 26.005 -11.035 26.005 -7.5 25.5 C-6.84 26.82 -6.18 28.14 -5.5 29.5 C-4.51 29.5 -3.52 29.5 -2.5 29.5 C-4.15 30.82 -5.8 32.14 -7.5 33.5 C-7.17 34.49 -6.84 35.48 -6.5 36.5 C-7.985 36.995 -7.985 36.995 -9.5 37.5 C-9.5 35.85 -9.5 34.2 -9.5 32.5 C-11.15 32.17 -12.8 31.84 -14.5 31.5 C-14.5 30.51 -14.5 29.52 -14.5 28.5 C-15.44978897 26.34971696 -15.44978897 26.34971696 -16.5 24.5 C-17.16 24.5 -17.82 24.5 -18.5 24.5 C-18.974375 23.84 -19.44875 23.18 -19.9375 22.5 C-20.453125 21.84 -20.96875 21.18 -21.5 20.5 C-22.49 20.5 -23.48 20.5 -24.5 20.5 C-24.17 18.85 -23.84 17.2 -23.5 15.5 C-23.17 16.16 -22.84 16.82 -22.5 17.5 C-20.52 16.84 -18.54 16.18 -16.5 15.5 C-16.5 13.52 -16.5 11.54 -16.5 9.5 C-18.15 9.5 -19.8 9.5 -21.5 9.5 C-19.82258336 5.53519703 -17.37873138 2.65958323 -14.5 -0.5 C-9.24461396 -2.25179535 -5.01111219 -2.14761951 0 0 Z " fill="#F6F5F5" transform="translate(92.5,43.5)"/>
<path d="M0 0 C0.97608217 2.92824652 1.08226668 4.95613276 1 8 C2.98 8 4.96 8 7 8 C7.66 6.68 8.32 5.36 9 4 C9 4.99 9 5.98 9 7 C9.98071757 9.26319439 11.15683642 11.24178948 12.5 13.3125 C14 16 14 16 14.8125 19.5625 C16.28984465 23.839024 18.10278491 24.88194832 22 27 C21.67 29.64 21.34 32.28 21 35 C20.608125 34.505 20.21625 34.01 19.8125 33.5 C17.44908285 31.54406857 15.98564997 31.75792027 13 32 C13 31.34 13 30.68 13 30 C11.35 30.33 9.7 30.66 8 31 C9.32 31.66 10.64 32.32 12 33 C10.68 34.32 9.36 35.64 8 37 C9.98 36.505 9.98 36.505 12 36 C9.8125 38.5625 9.8125 38.5625 7 41 C4.1875 40.8125 4.1875 40.8125 2 40 C1.67 40.66 1.34 41.32 1 42 C-1 41 -1 41 -2.125 38.75 C-3.00513321 35.98386705 -3.1645438 33.87951649 -3 31 C-5.31 31.33 -7.62 31.66 -10 32 C-10.66 31.01 -11.32 30.02 -12 29 C-7.25 25 -7.25 25 -5 25 C-4.87882812 24.08476563 -4.75765625 23.16953125 -4.6328125 22.2265625 C-4.38144531 20.44378906 -4.38144531 20.44378906 -4.125 18.625 C-3.96257813 17.44164063 -3.80015625 16.25828125 -3.6328125 15.0390625 C-3 12 -3 12 -1 10 C-0.79527165 8.08505313 -0.79527165 8.08505313 -0.9375 6 C-1.09830508 2.19661017 -1.09830508 2.19661017 0 0 Z " fill="#1F1F1F" transform="translate(41,48)"/>
<path d="M0 0 C4.18480562 6.27720844 8.80194624 13.53851083 7.875 21.3125 C7.58625 22.529375 7.2975 23.74625 7 25 C6.67 25 6.34 25 6 25 C5.67 23.35 5.34 21.7 5 20 C4.13375 20.61875 3.2675 21.2375 2.375 21.875 C-1.96263473 24.60610335 -5.07831388 26.18477751 -10.25 25.6875 C-13 25 -13 25 -15 24 C-14.67 25.98 -14.34 27.96 -14 30 C-14.53625 29.505 -15.0725 29.01 -15.625 28.5 C-18.70110743 26.55719531 -20.41889189 26.47775507 -24 27 C-26.62283334 28.28892287 -26.62283334 28.28892287 -28 31 C-28.02646495 34.07522774 -27.59220351 36.98748647 -27 40 C-28.5 38.625 -28.5 38.625 -30 37 C-30 36.34 -30 35.68 -30 35 C-30.78375 35.515625 -31.5675 36.03125 -32.375 36.5625 C-33.24125 37.036875 -34.1075 37.51125 -35 38 C-35.66 37.67 -36.32 37.34 -37 37 C-36.34 35.68 -35.68 34.36 -35 33 C-34.67 33.66 -34.34 34.32 -34 35 C-32.02 34.505 -32.02 34.505 -30 34 C-30 33.01 -30 32.02 -30 31 C-30.66 30.67 -31.32 30.34 -32 30 C-29.87330165 27.66063182 -27.93775144 26.19346152 -25 25 C-24.01 25 -23.02 25 -22 25 C-22.3609375 24.37351562 -22.721875 23.74703125 -23.09375 23.1015625 C-23.5578125 22.28429687 -24.021875 21.46703125 -24.5 20.625 C-24.9640625 19.81289062 -25.428125 19.00078125 -25.90625 18.1640625 C-27 16 -27 16 -27 14 C-27.99 14 -28.98 14 -30 14 C-30.66 12.68 -31.32 11.36 -32 10 C-32.99 10 -33.98 10 -35 10 C-34.67 9.01 -34.34 8.02 -34 7 C-30.9375 5.8125 -30.9375 5.8125 -28 5 C-26.5 6.375 -26.5 6.375 -25 8 C-25 8.66 -25 9.32 -25 10 C-24.34 10 -23.68 10 -23 10 C-21.61061923 11.96147874 -20.2739589 13.96166576 -19 16 C-19.33 16.33 -19.66 16.66 -20 17 C-18.68 17.33 -17.36 17.66 -16 18 C-15.67 19.32 -15.34 20.64 -15 22 C-14.34 22 -13.68 22 -13 22 C-13 21.34 -13 20.68 -13 20 C-13.66 19.67 -14.32 19.34 -15 19 C-14.01 18.01 -13.02 17.02 -12 16 C-12.66 15.67 -13.32 15.34 -14 15 C-14 14.01 -14 13.02 -14 12 C-16.31 12 -18.62 12 -21 12 C-21 11.01 -21 10.02 -21 9 C-17.7 8.67 -14.4 8.34 -11 8 C-11.33 9.65 -11.66 11.3 -12 13 C-11.401875 12.814375 -10.80375 12.62875 -10.1875 12.4375 C-8 12 -8 12 -5 13 C-5.33 10.36 -5.66 7.72 -6 5 C-2.25 2 -2.25 2 0 2 C0 1.34 0 0.68 0 0 Z " fill="#030303" transform="translate(99,58)"/>
<path d="M0 0 C0.33 0.66 0.66 1.32 1 2 C1.66 2 2.32 2 3 2 C3 2.66 3 3.32 3 4 C4.175625 3.690625 4.175625 3.690625 5.375 3.375 C6.674375 3.189375 6.674375 3.189375 8 3 C8.66 3.66 9.32 4.32 10 5 C9.6730244 7.61580479 9.17960932 9.64078137 8 12 C8.99 12 9.98 12 11 12 C11.66 10.68 12.32 9.36 13 8 C14.65 8 16.3 8 18 8 C17.7215625 8.86625 17.7215625 8.86625 17.4375 9.75 C16.95976454 12.20692525 17.24270636 13.64397534 18 16 C16.02 16.99 14.04 17.98 12 19 C12.33 19.33 12.66 19.66 13 20 C13.04063832 21.66617115 13.042721 23.33388095 13 25 C14.65 25.33 16.3 25.66 18 26 C18 26.33 18 26.66 18 27 C9.585 27.495 9.585 27.495 1 28 C0.67 26.68 0.34 25.36 0 24 C-0.66 24 -1.32 24 -2 24 C-2.33 24.66 -2.66 25.32 -3 26 C-3.99 25.67 -4.98 25.34 -6 25 C-5.34 25 -4.68 25 -4 25 C-4.33 24.01 -4.66 23.02 -5 22 C-5.66 22.66 -6.32 23.32 -7 24 C-7.66 23.34 -8.32 22.68 -9 22 C-9.33 22.99 -9.66 23.98 -10 25 C-9.34 25 -8.68 25 -8 25 C-8 25.66 -8 26.32 -8 27 C-10.31 27 -12.62 27 -15 27 C-16.26237731 24.47524538 -16.09856404 22.68799534 -16.0625 19.875 C-16.05347656 18.96492188 -16.04445312 18.05484375 -16.03515625 17.1171875 C-16.02355469 16.41851562 -16.01195312 15.71984375 -16 15 C-12.535 14.505 -12.535 14.505 -9 14 C-8.67 13.01 -8.34 12.02 -8 11 C-7.236875 11.226875 -6.47375 11.45375 -5.6875 11.6875 C-4.3571875 11.8421875 -4.3571875 11.8421875 -3 12 C-1.1645201 10.66621425 -1.1645201 10.66621425 0 9 C-0.66 9 -1.32 9 -2 9 C-1.34 7.68 -0.68 6.36 0 5 C-0.99 4.34 -1.98 3.68 -3 3 C-2.01 2.67 -1.02 2.34 0 2 C0 1.34 0 0.68 0 0 Z " fill="#828281" transform="translate(51,76)"/>
<path d="M0 0 C-0.29392554 7.43631626 -1.18771916 12.15070673 -6.609375 17.625 C-12.45902684 23.00875037 -17.77469347 24.43177383 -25.66015625 24.25390625 C-28.78514698 23.91480041 -30.63729949 23.06736295 -33 21 C-35.11774618 18.30468668 -34.99746873 16.92785868 -34.875 13.4375 C-34 10 -34 10 -32.3125 8.0625 C-29.33544441 6.69466365 -27.24358463 6.65493781 -24 7 C-23.01 7.66 -22.02 8.32 -21 9 C-21.33 8.34 -21.66 7.68 -22 7 C-21.67 6.34 -21.34 5.68 -21 5 C-19.865625 5.2475 -18.73125 5.495 -17.5625 5.75 C-10.2396372 6.70119036 -6.09509469 0 0 0 Z " fill="#EDEDED" transform="translate(105,77)"/>
<path d="M0 0 C6.69195768 2.03967203 8.79642828 7.14392968 12 13 C16.12454987 21.03843724 17.9965366 28.98950348 19.421875 37.82421875 C19.66179354 40.85147086 19.66179354 40.85147086 21 42 C21.04063832 43.66617115 21.042721 45.33388095 21 47 C20.34 45.68 19.68 44.36 19 43 C18.34 43 17.68 43 17 43 C16.67 43.33 16.34 43.66 16 44 C14.33382885 44.04063832 12.66611905 44.042721 11 44 C11 43.34 11 42.68 11 42 C10.34 42 9.68 42 9 42 C9 41.34 9 40.68 9 40 C3.35600642 37.55935413 -1.97751478 37.80710901 -8 38 C-8.27585937 38.59296875 -8.55171875 39.1859375 -8.8359375 39.796875 C-10.49365804 42.93430583 -12.68322145 45.31741431 -15 48 C-14.195625 47.814375 -13.39125 47.62875 -12.5625 47.4375 C-11.716875 47.293125 -10.87125 47.14875 -10 47 C-9 48 -9 48 -8.8125 50.9375 C-9 54 -9 54 -11 56 C-12.66614608 56.04165365 -14.33385392 56.04165365 -16 56 C-16.99 56.495 -16.99 56.495 -18 57 C-18.62930837 50.95863965 -18.12863718 46.72838567 -14.52734375 41.73046875 C-10.979041 37.71026896 -8.08263963 36.29977389 -2.90625 35.5546875 C2.75249952 35.25617548 6.88448829 35.19425471 11.3125 39 C12.92578125 40.6875 12.92578125 40.6875 14 42 C14.66 41.34 15.32 40.68 16 40 C15.6565766 27.77816728 10.28698666 16.2723861 3.55078125 6.33984375 C2.18234122 4.27511937 1.04984123 2.23931652 0 0 Z " fill="#DEDEDD" transform="translate(86,5)"/>
<path d="M0 0 C0.99 0.495 0.99 0.495 2 1 C2 1.99 2 2.98 2 4 C2.66 4 3.32 4 4 4 C5.5625 5.4375 5.5625 5.4375 7 7 C7.33 7.33 7.66 7.66 8 8 C8 6.02 8 4.04 8 2 C8.99 2.66 9.98 3.32 11 4 C11 4.66 11 5.32 11 6 C11.66 6 12.32 6 13 6 C13.36923077 12.4 13.36923077 12.4 11.5 15.4375 C11.005 15.953125 10.51 16.46875 10 17 C11.18424326 18.41577477 11.18424326 18.41577477 14.5625 18.0625 C16.2640625 18.0315625 16.2640625 18.0315625 18 18 C18.99 21.3 19.98 24.6 21 28 C18.525 29.485 18.525 29.485 16 31 C15.18432826 29.56429734 14.37257907 28.12636566 13.5625 26.6875 C13.11003906 25.88699219 12.65757813 25.08648437 12.19140625 24.26171875 C11 22 11 22 10 19 C9.01 18.67 8.02 18.34 7 18 C7.19452754 26.82447642 9.6009909 33.91587025 13 42 C13.33 42.99 13.66 43.98 14 45 C12.16796875 44.89453125 12.16796875 44.89453125 10 44 C8.55078125 41.19921875 8.55078125 41.19921875 7.3125 37.6875 C6.89613281 36.53636719 6.47976562 35.38523438 6.05078125 34.19921875 C4.50466704 29.49190447 3.88236263 25.86186903 3.9375 20.875 C3.94652344 19.82054688 3.95554687 18.76609375 3.96484375 17.6796875 C3.97644531 16.79539062 3.98804688 15.91109375 4 15 C4 14.34 4 13.68 4 13 C3.34 12.484375 2.68 11.96875 2 11.4375 C-0.9525019 7.83913831 -0.34491116 4.48384508 0 0 Z " fill="#D8D8D7" transform="translate(20,61)"/>
<path d="M0 0 C6.40896739 1.33016304 6.40896739 1.33016304 8.875 4.125 C10.31529427 7.80575201 10.66635639 11.06300538 11 15 C11.66 13.68 12.32 12.36 13 11 C13.66 11 14.32 11 15 11 C15 12.65 15 14.3 15 16 C13.02 16.33 11.04 16.66 9 17 C8.67 15.68 8.34 14.36 8 13 C7.34 13 6.68 13 6 13 C5.67 13.66 5.34 14.32 5 15 C4.01 14.67 3.02 14.34 2 14 C2.66 14 3.32 14 4 14 C3.67 13.01 3.34 12.02 3 11 C2.34 11.66 1.68 12.32 1 13 C0.34 12.34 -0.32 11.68 -1 11 C-1.33 11.99 -1.66 12.98 -2 14 C-1.34 14 -0.68 14 0 14 C0 14.66 0 15.32 0 16 C-2.31 16 -4.62 16 -7 16 C-8.26237731 13.47524538 -8.09856404 11.68799534 -8.0625 8.875 C-8.05347656 7.96492188 -8.04445312 7.05484375 -8.03515625 6.1171875 C-8.02355469 5.41851562 -8.01195312 4.71984375 -8 4 C-4.535 3.505 -4.535 3.505 -1 3 C-0.67 2.01 -0.34 1.02 0 0 Z " fill="#DBDBDA" transform="translate(43,87)"/>
<path d="M0 0 C1.8125 1.3125 1.8125 1.3125 2.8125 4.3125 C3.4725 4.3125 4.1325 4.3125 4.8125 4.3125 C6.20188077 6.27397874 7.5385411 8.27416576 8.8125 10.3125 C8.4825 10.6425 8.1525 10.9725 7.8125 11.3125 C9.1325 11.6425 10.4525 11.9725 11.8125 12.3125 C11.98123478 13.74975871 12.14740737 15.18731838 12.3125 16.625 C12.4053125 17.42550781 12.498125 18.22601563 12.59375 19.05078125 C12.8125 21.3125 12.8125 21.3125 12.8125 24.3125 C12.44125 23.8175 12.07 23.3225 11.6875 22.8125 C9.82181202 21.06223954 9.82181202 21.06223954 6.875 20.875 C3.78972466 21.1172828 3.78972466 21.1172828 1.375 22.75 C-0.98589207 26.62186299 -0.03491312 30.0017463 0.8125 34.3125 C-0.6875 32.9375 -0.6875 32.9375 -2.1875 31.3125 C-2.1875 30.6525 -2.1875 29.9925 -2.1875 29.3125 C-2.97125 29.828125 -3.755 30.34375 -4.5625 30.875 C-5.42875 31.349375 -6.295 31.82375 -7.1875 32.3125 C-7.8475 31.9825 -8.5075 31.6525 -9.1875 31.3125 C-8.5275 29.9925 -7.8675 28.6725 -7.1875 27.3125 C-6.8575 27.9725 -6.5275 28.6325 -6.1875 29.3125 C-4.8675 28.9825 -3.5475 28.6525 -2.1875 28.3125 C-2.1875 27.3225 -2.1875 26.3325 -2.1875 25.3125 C-2.8475 24.9825 -3.5075 24.6525 -4.1875 24.3125 C-2.06080165 21.97313182 -0.12525144 20.50596152 2.8125 19.3125 C3.8025 19.3125 4.7925 19.3125 5.8125 19.3125 C5.4515625 18.68601562 5.090625 18.05953125 4.71875 17.4140625 C4.2546875 16.59679687 3.790625 15.77953125 3.3125 14.9375 C2.8484375 14.12539062 2.384375 13.31328125 1.90625 12.4765625 C0.8125 10.3125 0.8125 10.3125 0.8125 8.3125 C-0.1775 8.3125 -1.1675 8.3125 -2.1875 8.3125 C-2.8475 6.9925 -3.5075 5.6725 -4.1875 4.3125 C-5.1775 4.3125 -6.1675 4.3125 -7.1875 4.3125 C-6.1875 1.3125 -6.1875 1.3125 -4.375 0 C-2.1875 -0.6875 -2.1875 -0.6875 0 0 Z " fill="#0C0C0C" transform="translate(71.1875,63.6875)"/>
<path d="M0 0 C0.598125 0.165 1.19625 0.33 1.8125 0.5 C4.11344336 1.1114124 4.11344336 1.1114124 7 1 C6.01 2.32 5.02 3.64 4 5 C4.99 5.33 5.98 5.66 7 6 C7.66 5.01 8.32 4.02 9 3 C10.85776765 6.13498292 11.20140476 8.37471432 11 12 C10.34 12 9.68 12 9 12 C8.90847656 12.56203125 8.81695312 13.1240625 8.72265625 13.703125 C7.81299986 16.59435721 6.3388903 18.39919018 4.4375 20.75 C3.79683594 21.54921875 3.15617187 22.3484375 2.49609375 23.171875 C2.00238281 23.77515625 1.50867187 24.3784375 1 25 C-0.5625 23.1875 -0.5625 23.1875 -2 21 C-1.67 20.01 -1.34 19.02 -1 18 C0.65 18 2.3 18 4 18 C4 17.01 4 16.02 4 15 C2.35 15.33 0.7 15.66 -1 16 C-1 15.34 -1 14.68 -1 14 C-1.99 13.67 -2.98 13.34 -4 13 C-3.55966813 7.80408388 -3.11696661 4.33664919 0 0 Z " fill="#EEEEEE" transform="translate(43,58)"/>
<path d="M0 0 C3 2 3 2 3.8125 4.25 C4.04138035 7.60691182 3.09743438 9.83680679 2 13 C1.23418051 18.74364619 3.50018992 22.97806011 6 28 C11.90239999 19.01882653 15.16758898 10.28543724 18 0 C20.1220143 3.18302145 20.26729866 4.1573368 19.59375 7.79296875 C17.26302746 16.45650978 13.30134052 23.51474423 7.76953125 30.52734375 C6.02890969 32.95960302 4.98132241 35.18687575 4 38 C3.67 38 3.34 38 3 38 C3.12181641 37.16082031 3.12181641 37.16082031 3.24609375 36.3046875 C3.93394098 27.57323903 0.16205703 21.36853974 -4 14 C-4.33 14 -4.66 14 -5 14 C-5 12.35 -5 10.7 -5 9 C-3.35 8.34 -1.7 7.68 0 7 C0 6.01 0 5.02 0 4 C-1.32 3.67 -2.64 3.34 -4 3 C-3.01 2.67 -2.02 2.34 -1 2 C-0.67 1.34 -0.34 0.68 0 0 Z " fill="#D9D9D8" transform="translate(103,46)"/>
<path d="M0 0 C2.125 0.9375 2.125 0.9375 4 2 C4 2.99 4 3.98 4 5 C4.99 5 5.98 5 7 5 C7.83848804 6.45537568 8.67063934 7.91440373 9.5 9.375 C9.9640625 10.18710938 10.428125 10.99921875 10.90625 11.8359375 C12 14 12 14 12 16 C9.69 16.99 7.38 17.98 5 19 C4.67 18.67 4.34 18.34 4 18 C1.54207971 17.66656449 1.54207971 17.66656449 -1 18 C-1.66 18.99 -2.32 19.98 -3 21 C-3.99 21 -4.98 21 -6 21 C-5.71125 20.38125 -5.4225 19.7625 -5.125 19.125 C-3.00623411 13.23953918 -1.8434835 7.26066002 -2 1 C-1.34 0.67 -0.68 0.34 0 0 Z " fill="#F3F3F3" transform="translate(65,67)"/>
</svg>
